<svg xmlns="http://www.w3.org/2000/svg" xmlns:xlink="http://www.w3.org/1999/xlink" width="1420" zoomAndPan="magnify" viewBox="0 0 1065 1274.999945" height="1700" preserveAspectRatio="xMidYMid meet" version="1.0"><defs><clipPath id="bc711425b1"><path d="M 117.578125 56.222656 L 140 56.222656 L 140 77 L 117.578125 77 Z M 117.578125 56.222656 " clip-rule="nonzero"/></clipPath><clipPath id="6fab788ab8"><path d="M 933.023438 78 L 955 78 L 955 99 L 933.023438 99 Z M 933.023438 78 " clip-rule="nonzero"/></clipPath><clipPath id="dad9493a16"><path d="M 43.148438 220.019531 L 65 220.019531 L 65 241 L 43.148438 241 Z M 43.148438 220.019531 " clip-rule="nonzero"/></clipPath><clipPath id="31b0166ab1"><path d="M 71.542969 118.089844 L 84.171875 118.089844 L 84.171875 130.714844 L 71.542969 130.714844 Z M 71.542969 118.089844 " clip-rule="nonzero"/></clipPath><clipPath id="9a6ed1ff92"><path d="M 77.859375 118.089844 C 74.371094 118.089844 71.542969 120.914062 71.542969 124.402344 C 71.542969 127.890625 74.371094 130.714844 77.859375 130.714844 C 81.34375 130.714844 84.171875 127.890625 84.171875 124.402344 C 84.171875 120.914062 81.34375 118.089844 77.859375 118.089844 Z M 77.859375 118.089844 " clip-rule="nonzero"/></clipPath><clipPath id="a636f60f4b"><path d="M 0.542969 0.0898438 L 13.171875 0.0898438 L 13.171875 12.714844 L 0.542969 12.714844 Z M 0.542969 0.0898438 " clip-rule="nonzero"/></clipPath><clipPath id="42b2cc5c2b"><path d="M 6.859375 0.0898438 C 3.371094 0.0898438 0.542969 2.914062 0.542969 6.402344 C 0.542969 9.890625 3.371094 12.714844 6.859375 12.714844 C 10.34375 12.714844 13.171875 9.890625 13.171875 6.402344 C 13.171875 2.914062 10.34375 0.0898438 6.859375 0.0898438 Z M 6.859375 0.0898438 " clip-rule="nonzero"/></clipPath><clipPath id="68808183f2"><rect x="0" width="14" y="0" height="13"/></clipPath><clipPath id="1bacdecda4"><path d="M 992.183594 35.707031 L 1004.808594 35.707031 L 1004.808594 48.335938 L 992.183594 48.335938 Z M 992.183594 35.707031 " clip-rule="nonzero"/></clipPath><clipPath id="6af6fcd4aa"><path d="M 998.496094 35.707031 C 995.007812 35.707031 992.183594 38.535156 992.183594 42.023438 C 992.183594 45.507812 995.007812 48.335938 998.496094 48.335938 C 1001.984375 48.335938 1004.808594 45.507812 1004.808594 42.023438 C 1004.808594 38.535156 1001.984375 35.707031 998.496094 35.707031 Z M 998.496094 35.707031 " clip-rule="nonzero"/></clipPath><clipPath id="864ae54e48"><path d="M 0.183594 0.707031 L 12.808594 0.707031 L 12.808594 13.335938 L 0.183594 13.335938 Z M 0.183594 0.707031 " clip-rule="nonzero"/></clipPath><clipPath id="9413a5b0fc"><path d="M 6.496094 0.707031 C 3.007812 0.707031 0.183594 3.535156 0.183594 7.023438 C 0.183594 10.507812 3.007812 13.335938 6.496094 13.335938 C 9.984375 13.335938 12.808594 10.507812 12.808594 7.023438 C 12.808594 3.535156 9.984375 0.707031 6.496094 0.707031 Z M 6.496094 0.707031 " clip-rule="nonzero"/></clipPath><clipPath id="defb55e8c2"><rect x="0" width="13" y="0" height="14"/></clipPath><clipPath id="3c138e7c13"><path d="M 125.5625 210.679688 L 138.191406 210.679688 L 138.191406 223.308594 L 125.5625 223.308594 Z M 125.5625 210.679688 " clip-rule="nonzero"/></clipPath><clipPath id="cafa934fbe"><path d="M 131.878906 210.679688 C 128.390625 210.679688 125.5625 213.507812 125.5625 216.992188 C 125.5625 220.480469 128.390625 223.308594 131.878906 223.308594 C 135.363281 223.308594 138.191406 220.480469 138.191406 216.992188 C 138.191406 213.507812 135.363281 210.679688 131.878906 210.679688 Z M 131.878906 210.679688 " clip-rule="nonzero"/></clipPath><clipPath id="1b15231dcc"><path d="M 0.5625 0.679688 L 13.191406 0.679688 L 13.191406 13.308594 L 0.5625 13.308594 Z M 0.5625 0.679688 " clip-rule="nonzero"/></clipPath><clipPath id="0263bade5f"><path d="M 6.878906 0.679688 C 3.390625 0.679688 0.5625 3.507812 0.5625 6.992188 C 0.5625 10.480469 3.390625 13.308594 6.878906 13.308594 C 10.363281 13.308594 13.191406 10.480469 13.191406 6.992188 C 13.191406 3.507812 10.363281 0.679688 6.878906 0.679688 Z M 6.878906 0.679688 " clip-rule="nonzero"/></clipPath><clipPath id="5403e20f13"><rect x="0" width="14" y="0" height="14"/></clipPath><clipPath id="39b4efecf3"><path d="M 146.695312 302.484375 L 159.324219 302.484375 L 159.324219 315.113281 L 146.695312 315.113281 Z M 146.695312 302.484375 " clip-rule="nonzero"/></clipPath><clipPath id="cfdaea74f3"><path d="M 153.007812 302.484375 C 149.523438 302.484375 146.695312 305.3125 146.695312 308.800781 C 146.695312 312.285156 149.523438 315.113281 153.007812 315.113281 C 156.496094 315.113281 159.324219 312.285156 159.324219 308.800781 C 159.324219 305.3125 156.496094 302.484375 153.007812 302.484375 Z M 153.007812 302.484375 " clip-rule="nonzero"/></clipPath><clipPath id="bc9d3bd1cc"><path d="M 0.695312 0.484375 L 13.324219 0.484375 L 13.324219 13.113281 L 0.695312 13.113281 Z M 0.695312 0.484375 " clip-rule="nonzero"/></clipPath><clipPath id="26d63f4eff"><path d="M 7.007812 0.484375 C 3.523438 0.484375 0.695312 3.3125 0.695312 6.800781 C 0.695312 10.285156 3.523438 13.113281 7.007812 13.113281 C 10.496094 13.113281 13.324219 10.285156 13.324219 6.800781 C 13.324219 3.3125 10.496094 0.484375 7.007812 0.484375 Z M 7.007812 0.484375 " clip-rule="nonzero"/></clipPath><clipPath id="a0773042b0"><rect x="0" width="14" y="0" height="14"/></clipPath><clipPath id="53325c7d11"><path d="M 916.246094 12.628906 L 928.871094 12.628906 L 928.871094 25.253906 L 916.246094 25.253906 Z M 916.246094 12.628906 " clip-rule="nonzero"/></clipPath><clipPath id="c4ce28e80c"><path d="M 922.558594 12.628906 C 919.070312 12.628906 916.246094 15.453125 916.246094 18.941406 C 916.246094 22.425781 919.070312 25.253906 922.558594 25.253906 C 926.046875 25.253906 928.871094 22.425781 928.871094 18.941406 C 928.871094 15.453125 926.046875 12.628906 922.558594 12.628906 Z M 922.558594 12.628906 " clip-rule="nonzero"/></clipPath><clipPath id="debedc8100"><path d="M 0.246094 0.628906 L 12.871094 0.628906 L 12.871094 13.253906 L 0.246094 13.253906 Z M 0.246094 0.628906 " clip-rule="nonzero"/></clipPath><clipPath id="417634e5e2"><path d="M 6.558594 0.628906 C 3.070312 0.628906 0.246094 3.453125 0.246094 6.941406 C 0.246094 10.425781 3.070312 13.253906 6.558594 13.253906 C 10.046875 13.253906 12.871094 10.425781 12.871094 6.941406 C 12.871094 3.453125 10.046875 0.628906 6.558594 0.628906 Z M 6.558594 0.628906 " clip-rule="nonzero"/></clipPath><clipPath id="a8513a1410"><rect x="0" width="13" y="0" height="14"/></clipPath><clipPath id="fc99bb84ef"><path d="M 982.359375 402.046875 L 994.988281 402.046875 L 994.988281 414.671875 L 982.359375 414.671875 Z M 982.359375 402.046875 " clip-rule="nonzero"/></clipPath><clipPath id="716e8cc18c"><path d="M 988.675781 402.046875 C 985.1875 402.046875 982.359375 404.871094 982.359375 408.359375 C 982.359375 411.847656 985.1875 414.671875 988.675781 414.671875 C 992.160156 414.671875 994.988281 411.847656 994.988281 408.359375 C 994.988281 404.871094 992.160156 402.046875 988.675781 402.046875 Z M 988.675781 402.046875 " clip-rule="nonzero"/></clipPath><clipPath id="a708ac50d8"><path d="M 0.359375 0.046875 L 12.988281 0.046875 L 12.988281 12.671875 L 0.359375 12.671875 Z M 0.359375 0.046875 " clip-rule="nonzero"/></clipPath><clipPath id="cb58242e84"><path d="M 6.675781 0.046875 C 3.1875 0.046875 0.359375 2.871094 0.359375 6.359375 C 0.359375 9.847656 3.1875 12.671875 6.675781 12.671875 C 10.160156 12.671875 12.988281 9.847656 12.988281 6.359375 C 12.988281 2.871094 10.160156 0.046875 6.675781 0.046875 Z M 6.675781 0.046875 " clip-rule="nonzero"/></clipPath><clipPath id="30fa526445"><rect x="0" width="13" y="0" height="13"/></clipPath><clipPath id="ffd96a05c4"><path d="M 893.425781 453.328125 L 915.925781 453.328125 L 915.925781 474 L 893.425781 474 Z M 893.425781 453.328125 " clip-rule="nonzero"/></clipPath><clipPath id="8cf9bbee3f"><path d="M 946.914062 628.613281 L 959.539062 628.613281 L 959.539062 641.238281 L 946.914062 641.238281 Z M 946.914062 628.613281 " clip-rule="nonzero"/></clipPath><clipPath id="054c5ee153"><path d="M 953.226562 628.613281 C 949.738281 628.613281 946.914062 631.4375 946.914062 634.925781 C 946.914062 638.414062 949.738281 641.238281 953.226562 641.238281 C 956.714844 641.238281 959.539062 638.414062 959.539062 634.925781 C 959.539062 631.4375 956.714844 628.613281 953.226562 628.613281 Z M 953.226562 628.613281 " clip-rule="nonzero"/></clipPath><clipPath id="f72565e7bb"><path d="M 0.914062 0.613281 L 13.539062 0.613281 L 13.539062 13.238281 L 0.914062 13.238281 Z M 0.914062 0.613281 " clip-rule="nonzero"/></clipPath><clipPath id="cd65a6785f"><path d="M 7.226562 0.613281 C 3.738281 0.613281 0.914062 3.4375 0.914062 6.925781 C 0.914062 10.414062 3.738281 13.238281 7.226562 13.238281 C 10.714844 13.238281 13.539062 10.414062 13.539062 6.925781 C 13.539062 3.4375 10.714844 0.613281 7.226562 0.613281 Z M 7.226562 0.613281 " clip-rule="nonzero"/></clipPath><clipPath id="3022754e77"><rect x="0" width="14" y="0" height="14"/></clipPath><clipPath id="932c2ca711"><path d="M 959.539062 808.746094 L 972.167969 808.746094 L 972.167969 821.375 L 959.539062 821.375 Z M 959.539062 808.746094 " clip-rule="nonzero"/></clipPath><clipPath id="9ee802a012"><path d="M 965.855469 808.746094 C 962.367188 808.746094 959.539062 811.574219 959.539062 815.0625 C 959.539062 818.546875 962.367188 821.375 965.855469 821.375 C 969.339844 821.375 972.167969 818.546875 972.167969 815.0625 C 972.167969 811.574219 969.339844 808.746094 965.855469 808.746094 Z M 965.855469 808.746094 " clip-rule="nonzero"/></clipPath><clipPath id="2dbc1096e8"><path d="M 0.539062 0.746094 L 13.167969 0.746094 L 13.167969 13.375 L 0.539062 13.375 Z M 0.539062 0.746094 " clip-rule="nonzero"/></clipPath><clipPath id="2e19a7096d"><path d="M 6.855469 0.746094 C 3.367188 0.746094 0.539062 3.574219 0.539062 7.0625 C 0.539062 10.546875 3.367188 13.375 6.855469 13.375 C 10.339844 13.375 13.167969 10.546875 13.167969 7.0625 C 13.167969 3.574219 10.339844 0.746094 6.855469 0.746094 Z M 6.855469 0.746094 " clip-rule="nonzero"/></clipPath><clipPath id="aa9cdfbde1"><rect x="0" width="14" y="0" height="14"/></clipPath><clipPath id="d3ca03c440"><path d="M 1001.398438 753.921875 L 1014.023438 753.921875 L 1014.023438 766.546875 L 1001.398438 766.546875 Z M 1001.398438 753.921875 " clip-rule="nonzero"/></clipPath><clipPath id="a1647e5ef0"><path d="M 1007.710938 753.921875 C 1004.222656 753.921875 1001.398438 756.746094 1001.398438 760.234375 C 1001.398438 763.722656 1004.222656 766.546875 1007.710938 766.546875 C 1011.195312 766.546875 1014.023438 763.722656 1014.023438 760.234375 C 1014.023438 756.746094 1011.195312 753.921875 1007.710938 753.921875 Z M 1007.710938 753.921875 " clip-rule="nonzero"/></clipPath><clipPath id="dd6aadc4d7"><path d="M 0.398438 0.921875 L 13.023438 0.921875 L 13.023438 13.546875 L 0.398438 13.546875 Z M 0.398438 0.921875 " clip-rule="nonzero"/></clipPath><clipPath id="c611cb6e4c"><path d="M 6.710938 0.921875 C 3.222656 0.921875 0.398438 3.746094 0.398438 7.234375 C 0.398438 10.722656 3.222656 13.546875 6.710938 13.546875 C 10.195312 13.546875 13.023438 10.722656 13.023438 7.234375 C 13.023438 3.746094 10.195312 0.921875 6.710938 0.921875 Z M 6.710938 0.921875 " clip-rule="nonzero"/></clipPath><clipPath id="7031127a56"><rect x="0" width="14" y="0" height="14"/></clipPath><clipPath id="3b773f9918"><path d="M 125.5625 667.4375 L 138.191406 667.4375 L 138.191406 680.066406 L 125.5625 680.066406 Z M 125.5625 667.4375 " clip-rule="nonzero"/></clipPath><clipPath id="216b274079"><path d="M 131.878906 667.4375 C 128.390625 667.4375 125.5625 670.265625 125.5625 673.753906 C 125.5625 677.238281 128.390625 680.066406 131.878906 680.066406 C 135.363281 680.066406 138.191406 677.238281 138.191406 673.753906 C 138.191406 670.265625 135.363281 667.4375 131.878906 667.4375 Z M 131.878906 667.4375 " clip-rule="nonzero"/></clipPath><clipPath id="1d8331c889"><path d="M 0.5625 0.4375 L 13.191406 0.4375 L 13.191406 13.066406 L 0.5625 13.066406 Z M 0.5625 0.4375 " clip-rule="nonzero"/></clipPath><clipPath id="1052197558"><path d="M 6.878906 0.4375 C 3.390625 0.4375 0.5625 3.265625 0.5625 6.753906 C 0.5625 10.238281 3.390625 13.066406 6.878906 13.066406 C 10.363281 13.066406 13.191406 10.238281 13.191406 6.753906 C 13.191406 3.265625 10.363281 0.4375 6.878906 0.4375 Z M 6.878906 0.4375 " clip-rule="nonzero"/></clipPath><clipPath id="894d462cc0"><rect x="0" width="14" y="0" height="14"/></clipPath><clipPath id="87212c09d2"><path d="M 134.070312 923.660156 L 146.695312 923.660156 L 146.695312 936.285156 L 134.070312 936.285156 Z M 134.070312 923.660156 " clip-rule="nonzero"/></clipPath><clipPath id="bd24334ad7"><path d="M 140.382812 923.660156 C 136.894531 923.660156 134.070312 926.484375 134.070312 929.972656 C 134.070312 933.460938 136.894531 936.285156 140.382812 936.285156 C 143.871094 936.285156 146.695312 933.460938 146.695312 929.972656 C 146.695312 926.484375 143.871094 923.660156 140.382812 923.660156 Z M 140.382812 923.660156 " clip-rule="nonzero"/></clipPath><clipPath id="1825a27e7e"><path d="M 0.0703125 0.660156 L 12.695312 0.660156 L 12.695312 13.285156 L 0.0703125 13.285156 Z M 0.0703125 0.660156 " clip-rule="nonzero"/></clipPath><clipPath id="882fe2c417"><path d="M 6.382812 0.660156 C 2.894531 0.660156 0.0703125 3.484375 0.0703125 6.972656 C 0.0703125 10.460938 2.894531 13.285156 6.382812 13.285156 C 9.871094 13.285156 12.695312 10.460938 12.695312 6.972656 C 12.695312 3.484375 9.871094 0.660156 6.382812 0.660156 Z M 6.382812 0.660156 " clip-rule="nonzero"/></clipPath><clipPath id="d47682c27e"><rect x="0" width="13" y="0" height="14"/></clipPath><clipPath id="ec96f2f628"><path d="M 28.480469 750.574219 L 41.109375 750.574219 L 41.109375 763.203125 L 28.480469 763.203125 Z M 28.480469 750.574219 " clip-rule="nonzero"/></clipPath><clipPath id="306cd322e7"><path d="M 34.796875 750.574219 C 31.308594 750.574219 28.480469 753.402344 28.480469 756.886719 C 28.480469 760.375 31.308594 763.203125 34.796875 763.203125 C 38.28125 763.203125 41.109375 760.375 41.109375 756.886719 C 41.109375 753.402344 38.28125 750.574219 34.796875 750.574219 Z M 34.796875 750.574219 " clip-rule="nonzero"/></clipPath><clipPath id="bc2172db74"><path d="M 0.480469 0.574219 L 13.109375 0.574219 L 13.109375 13.203125 L 0.480469 13.203125 Z M 0.480469 0.574219 " clip-rule="nonzero"/></clipPath><clipPath id="e8c0093bb9"><path d="M 6.796875 0.574219 C 3.308594 0.574219 0.480469 3.402344 0.480469 6.886719 C 0.480469 10.375 3.308594 13.203125 6.796875 13.203125 C 10.28125 13.203125 13.109375 10.375 13.109375 6.886719 C 13.109375 3.402344 10.28125 0.574219 6.796875 0.574219 Z M 6.796875 0.574219 " clip-rule="nonzero"/></clipPath><clipPath id="6c09e4a6c4"><rect x="0" width="14" y="0" height="14"/></clipPath><clipPath id="0845a56a1d"><path d="M 86.570312 794.125 L 109 794.125 L 109 815 L 86.570312 815 Z M 86.570312 794.125 " clip-rule="nonzero"/></clipPath><clipPath id="e8236f8658"><path d="M 97.980469 508.4375 L 110.605469 508.4375 L 110.605469 521.0625 L 97.980469 521.0625 Z M 97.980469 508.4375 " clip-rule="nonzero"/></clipPath><clipPath id="ef5e9dbb64"><path d="M 104.292969 508.4375 C 100.804688 508.4375 97.980469 511.261719 97.980469 514.75 C 97.980469 518.238281 100.804688 521.0625 104.292969 521.0625 C 107.78125 521.0625 110.605469 518.238281 110.605469 514.75 C 110.605469 511.261719 107.78125 508.4375 104.292969 508.4375 Z M 104.292969 508.4375 " clip-rule="nonzero"/></clipPath><clipPath id="50c210e849"><path d="M 0.980469 0.4375 L 13.605469 0.4375 L 13.605469 13.0625 L 0.980469 13.0625 Z M 0.980469 0.4375 " clip-rule="nonzero"/></clipPath><clipPath id="3e4b36862f"><path d="M 7.292969 0.4375 C 3.804688 0.4375 0.980469 3.261719 0.980469 6.75 C 0.980469 10.238281 3.804688 13.0625 7.292969 13.0625 C 10.78125 13.0625 13.605469 10.238281 13.605469 6.75 C 13.605469 3.261719 10.78125 0.4375 7.292969 0.4375 Z M 7.292969 0.4375 " clip-rule="nonzero"/></clipPath><clipPath id="21e47c8d16"><rect x="0" width="14" y="0" height="14"/></clipPath><clipPath id="0b3e90eacb"><path d="M 97.980469 408.359375 L 110.605469 408.359375 L 110.605469 420.988281 L 97.980469 420.988281 Z M 97.980469 408.359375 " clip-rule="nonzero"/></clipPath><clipPath id="a92d828cde"><path d="M 104.292969 408.359375 C 100.804688 408.359375 97.980469 411.1875 97.980469 414.671875 C 97.980469 418.160156 100.804688 420.988281 104.292969 420.988281 C 107.78125 420.988281 110.605469 418.160156 110.605469 414.671875 C 110.605469 411.1875 107.78125 408.359375 104.292969 408.359375 Z M 104.292969 408.359375 " clip-rule="nonzero"/></clipPath><clipPath id="ea620f36e8"><path d="M 0.980469 0.359375 L 13.605469 0.359375 L 13.605469 12.988281 L 0.980469 12.988281 Z M 0.980469 0.359375 " clip-rule="nonzero"/></clipPath><clipPath id="31fc67967a"><path d="M 7.292969 0.359375 C 3.804688 0.359375 0.980469 3.1875 0.980469 6.671875 C 0.980469 10.160156 3.804688 12.988281 7.292969 12.988281 C 10.78125 12.988281 13.605469 10.160156 13.605469 6.671875 C 13.605469 3.1875 10.78125 0.359375 7.292969 0.359375 Z M 7.292969 0.359375 " clip-rule="nonzero"/></clipPath><clipPath id="1d1bb7eda3"><rect x="0" width="14" y="0" height="13"/></clipPath><clipPath id="8bf4370d72"><path d="M 52.605469 600.242188 L 65.230469 600.242188 L 65.230469 612.867188 L 52.605469 612.867188 Z M 52.605469 600.242188 " clip-rule="nonzero"/></clipPath><clipPath id="2db10249ef"><path d="M 58.917969 600.242188 C 55.429688 600.242188 52.605469 603.070312 52.605469 606.554688 C 52.605469 610.042969 55.429688 612.867188 58.917969 612.867188 C 62.40625 612.867188 65.230469 610.042969 65.230469 606.554688 C 65.230469 603.070312 62.40625 600.242188 58.917969 600.242188 Z M 58.917969 600.242188 " clip-rule="nonzero"/></clipPath><clipPath id="7bb6961730"><path d="M 0.605469 0.242188 L 13.230469 0.242188 L 13.230469 12.867188 L 0.605469 12.867188 Z M 0.605469 0.242188 " clip-rule="nonzero"/></clipPath><clipPath id="bbebeddcf2"><path d="M 6.917969 0.242188 C 3.429688 0.242188 0.605469 3.070312 0.605469 6.554688 C 0.605469 10.042969 3.429688 12.867188 6.917969 12.867188 C 10.40625 12.867188 13.230469 10.042969 13.230469 6.554688 C 13.230469 3.070312 10.40625 0.242188 6.917969 0.242188 Z M 6.917969 0.242188 " clip-rule="nonzero"/></clipPath><clipPath id="98d606fc9d"><rect x="0" width="14" y="0" height="13"/></clipPath><clipPath id="9360b8e55c"><path d="M 990.304688 681 L 1012.804688 681 L 1012.804688 701.570312 L 990.304688 701.570312 Z M 990.304688 681 " clip-rule="nonzero"/></clipPath><clipPath id="021f107582"><path d="M 1008.261719 317 L 1030.761719 317 L 1030.761719 337.5 L 1008.261719 337.5 Z M 1008.261719 317 " clip-rule="nonzero"/></clipPath><clipPath id="c1c18cd3f1"><path d="M 1004.804688 540.882812 L 1017.429688 540.882812 L 1017.429688 553.511719 L 1004.804688 553.511719 Z M 1004.804688 540.882812 " clip-rule="nonzero"/></clipPath><clipPath id="96933a00e8"><path d="M 1011.117188 553.511719 C 1014.605469 553.511719 1017.429688 550.683594 1017.429688 547.195312 C 1017.429688 543.710938 1014.605469 540.882812 1011.117188 540.882812 C 1007.628906 540.882812 1004.804688 543.710938 1004.804688 547.195312 C 1004.804688 550.683594 1007.628906 553.511719 1011.117188 553.511719 Z M 1011.117188 553.511719 " clip-rule="nonzero"/></clipPath><clipPath id="746e8c2307"><path d="M 0.804688 0.882812 L 13.429688 0.882812 L 13.429688 13.511719 L 0.804688 13.511719 Z M 0.804688 0.882812 " clip-rule="nonzero"/></clipPath><clipPath id="cd82ac9919"><path d="M 7.117188 13.511719 C 10.605469 13.511719 13.429688 10.683594 13.429688 7.195312 C 13.429688 3.710938 10.605469 0.882812 7.117188 0.882812 C 3.628906 0.882812 0.804688 3.710938 0.804688 7.195312 C 0.804688 10.683594 3.628906 13.511719 7.117188 13.511719 Z M 7.117188 13.511719 " clip-rule="nonzero"/></clipPath><clipPath id="515911ec27"><rect x="0" width="14" y="0" height="14"/></clipPath><clipPath id="8551e59834"><path d="M 935.714844 334.210938 L 948.34375 334.210938 L 948.34375 346.835938 L 935.714844 346.835938 Z M 935.714844 334.210938 " clip-rule="nonzero"/></clipPath><clipPath id="3fc7a7babf"><path d="M 942.027344 346.835938 C 945.515625 346.835938 948.34375 344.011719 948.34375 340.523438 C 948.34375 337.039062 945.515625 334.210938 942.027344 334.210938 C 938.542969 334.210938 935.714844 337.039062 935.714844 340.523438 C 935.714844 344.011719 938.542969 346.835938 942.027344 346.835938 Z M 942.027344 346.835938 " clip-rule="nonzero"/></clipPath><clipPath id="3942cf7a0e"><path d="M 0.714844 0.210938 L 13.34375 0.210938 L 13.34375 12.835938 L 0.714844 12.835938 Z M 0.714844 0.210938 " clip-rule="nonzero"/></clipPath><clipPath id="214644c290"><path d="M 7.027344 12.835938 C 10.515625 12.835938 13.34375 10.011719 13.34375 6.523438 C 13.34375 3.039062 10.515625 0.210938 7.027344 0.210938 C 3.542969 0.210938 0.714844 3.039062 0.714844 6.523438 C 0.714844 10.011719 3.542969 12.835938 7.027344 12.835938 Z M 7.027344 12.835938 " clip-rule="nonzero"/></clipPath><clipPath id="458719fdbd"><rect x="0" width="14" y="0" height="13"/></clipPath><clipPath id="6afdd2c317"><path d="M 968.140625 263.648438 L 980.765625 263.648438 L 980.765625 276.277344 L 968.140625 276.277344 Z M 968.140625 263.648438 " clip-rule="nonzero"/></clipPath><clipPath id="4ef7d5a3f4"><path d="M 974.453125 276.277344 C 977.941406 276.277344 980.765625 273.449219 980.765625 269.960938 C 980.765625 266.476562 977.941406 263.648438 974.453125 263.648438 C 970.964844 263.648438 968.140625 266.476562 968.140625 269.960938 C 968.140625 273.449219 970.964844 276.277344 974.453125 276.277344 Z M 974.453125 276.277344 " clip-rule="nonzero"/></clipPath><clipPath id="fe7d98fe3f"><path d="M 0.140625 0.648438 L 12.765625 0.648438 L 12.765625 13.277344 L 0.140625 13.277344 Z M 0.140625 0.648438 " clip-rule="nonzero"/></clipPath><clipPath id="184ae7317e"><path d="M 6.453125 13.277344 C 9.941406 13.277344 12.765625 10.449219 12.765625 6.960938 C 12.765625 3.476562 9.941406 0.648438 6.453125 0.648438 C 2.964844 0.648438 0.140625 3.476562 0.140625 6.960938 C 0.140625 10.449219 2.964844 13.277344 6.453125 13.277344 Z M 6.453125 13.277344 " clip-rule="nonzero"/></clipPath><clipPath id="b5763bdc4c"><rect x="0" width="13" y="0" height="14"/></clipPath><clipPath id="6aa2e0fd4d"><path d="M 986 19 L 1064.777344 19 L 1064.777344 242 L 986 242 Z M 986 19 " clip-rule="nonzero"/></clipPath><clipPath id="43cb6bf959"><path d="M 28.476562 18.84375 L 41.101562 18.84375 L 41.101562 31.472656 L 28.476562 31.472656 Z M 28.476562 18.84375 " clip-rule="nonzero"/></clipPath><clipPath id="470a55a767"><path d="M 34.789062 31.472656 C 38.277344 31.472656 41.101562 28.644531 41.101562 25.160156 C 41.101562 21.671875 38.277344 18.84375 34.789062 18.84375 C 31.304688 18.84375 28.476562 21.671875 28.476562 25.160156 C 28.476562 28.644531 31.304688 31.472656 34.789062 31.472656 Z M 34.789062 31.472656 " clip-rule="nonzero"/></clipPath><clipPath id="c763d115bf"><path d="M 0.476562 0.84375 L 13.101562 0.84375 L 13.101562 13.472656 L 0.476562 13.472656 Z M 0.476562 0.84375 " clip-rule="nonzero"/></clipPath><clipPath id="a2f7a9eecb"><path d="M 6.789062 13.472656 C 10.277344 13.472656 13.101562 10.644531 13.101562 7.160156 C 13.101562 3.671875 10.277344 0.84375 6.789062 0.84375 C 3.304688 0.84375 0.476562 3.671875 0.476562 7.160156 C 0.476562 10.644531 3.304688 13.472656 6.789062 13.472656 Z M 6.789062 13.472656 " clip-rule="nonzero"/></clipPath><clipPath id="3eac42ed8e"><rect x="0" width="14" y="0" height="14"/></clipPath><clipPath id="1d5586d654"><path d="M 963.300781 136.53125 L 975.925781 136.53125 L 975.925781 149.15625 L 963.300781 149.15625 Z M 963.300781 136.53125 " clip-rule="nonzero"/></clipPath><clipPath id="254ddb6268"><path d="M 969.613281 149.15625 C 973.097656 149.15625 975.925781 146.332031 975.925781 142.84375 C 975.925781 139.355469 973.097656 136.53125 969.613281 136.53125 C 966.125 136.53125 963.300781 139.355469 963.300781 142.84375 C 963.300781 146.332031 966.125 149.15625 969.613281 149.15625 Z M 969.613281 149.15625 " clip-rule="nonzero"/></clipPath><clipPath id="52af77c996"><path d="M 0.300781 0.53125 L 12.925781 0.53125 L 12.925781 13.15625 L 0.300781 13.15625 Z M 0.300781 0.53125 " clip-rule="nonzero"/></clipPath><clipPath id="aec6cfa08c"><path d="M 6.613281 13.15625 C 10.097656 13.15625 12.925781 10.332031 12.925781 6.84375 C 12.925781 3.355469 10.097656 0.53125 6.613281 0.53125 C 3.125 0.53125 0.300781 3.355469 0.300781 6.84375 C 0.300781 10.332031 3.125 13.15625 6.613281 13.15625 Z M 6.613281 13.15625 " clip-rule="nonzero"/></clipPath><clipPath id="160db33186"><rect x="0" width="13" y="0" height="14"/></clipPath><clipPath id="3b1853cebf"><path d="M 28.480469 1075.332031 L 41.109375 1075.332031 L 41.109375 1087.957031 L 28.480469 1087.957031 Z M 28.480469 1075.332031 " clip-rule="nonzero"/></clipPath><clipPath id="7c1562741e"><path d="M 34.796875 1075.332031 C 31.308594 1075.332031 28.480469 1078.160156 28.480469 1081.644531 C 28.480469 1085.132812 31.308594 1087.957031 34.796875 1087.957031 C 38.28125 1087.957031 41.109375 1085.132812 41.109375 1081.644531 C 41.109375 1078.160156 38.28125 1075.332031 34.796875 1075.332031 Z M 34.796875 1075.332031 " clip-rule="nonzero"/></clipPath><clipPath id="d9b1fe5097"><path d="M 0.480469 0.332031 L 13.109375 0.332031 L 13.109375 12.957031 L 0.480469 12.957031 Z M 0.480469 0.332031 " clip-rule="nonzero"/></clipPath><clipPath id="60311ebc3e"><path d="M 6.796875 0.332031 C 3.308594 0.332031 0.480469 3.160156 0.480469 6.644531 C 0.480469 10.132812 3.308594 12.957031 6.796875 12.957031 C 10.28125 12.957031 13.109375 10.132812 13.109375 6.644531 C 13.109375 3.160156 10.28125 0.332031 6.796875 0.332031 Z M 6.796875 0.332031 " clip-rule="nonzero"/></clipPath><clipPath id="ae90c03493"><rect x="0" width="14" y="0" height="13"/></clipPath><clipPath id="1923a08153"><path d="M 100.1875 1046.074219 L 112.8125 1046.074219 L 112.8125 1058.699219 L 100.1875 1058.699219 Z M 100.1875 1046.074219 " clip-rule="nonzero"/></clipPath><clipPath id="cba58c93d7"><path d="M 106.5 1046.074219 C 103.011719 1046.074219 100.1875 1048.898438 100.1875 1052.386719 C 100.1875 1055.875 103.011719 1058.699219 106.5 1058.699219 C 109.988281 1058.699219 112.8125 1055.875 112.8125 1052.386719 C 112.8125 1048.898438 109.988281 1046.074219 106.5 1046.074219 Z M 106.5 1046.074219 " clip-rule="nonzero"/></clipPath><clipPath id="f207242f9b"><path d="M 0.1875 0.0742188 L 12.8125 0.0742188 L 12.8125 12.699219 L 0.1875 12.699219 Z M 0.1875 0.0742188 " clip-rule="nonzero"/></clipPath><clipPath id="3383a043b6"><path d="M 6.5 0.0742188 C 3.011719 0.0742188 0.1875 2.898438 0.1875 6.386719 C 0.1875 9.875 3.011719 12.699219 6.5 12.699219 C 9.988281 12.699219 12.8125 9.875 12.8125 6.386719 C 12.8125 2.898438 9.988281 0.0742188 6.5 0.0742188 Z M 6.5 0.0742188 " clip-rule="nonzero"/></clipPath><clipPath id="cd3c490462"><rect x="0" width="13" y="0" height="13"/></clipPath><clipPath id="056c248e7e"><path d="M 59.652344 1137.863281 L 72.28125 1137.863281 L 72.28125 1150.492188 L 59.652344 1150.492188 Z M 59.652344 1137.863281 " clip-rule="nonzero"/></clipPath><clipPath id="ce74fd1b08"><path d="M 65.96875 1137.863281 C 62.480469 1137.863281 59.652344 1140.691406 59.652344 1144.175781 C 59.652344 1147.664062 62.480469 1150.492188 65.96875 1150.492188 C 69.453125 1150.492188 72.28125 1147.664062 72.28125 1144.175781 C 72.28125 1140.691406 69.453125 1137.863281 65.96875 1137.863281 Z M 65.96875 1137.863281 " clip-rule="nonzero"/></clipPath><clipPath id="0751003a25"><path d="M 0.652344 0.863281 L 13.28125 0.863281 L 13.28125 13.492188 L 0.652344 13.492188 Z M 0.652344 0.863281 " clip-rule="nonzero"/></clipPath><clipPath id="05d0fe0f84"><path d="M 6.96875 0.863281 C 3.480469 0.863281 0.652344 3.691406 0.652344 7.175781 C 0.652344 10.664062 3.480469 13.492188 6.96875 13.492188 C 10.453125 13.492188 13.28125 10.664062 13.28125 7.175781 C 13.28125 3.691406 10.453125 0.863281 6.96875 0.863281 Z M 6.96875 0.863281 " clip-rule="nonzero"/></clipPath><clipPath id="12b4543a68"><rect x="0" width="14" y="0" height="14"/></clipPath><clipPath id="db324bee9d"><path d="M 1007 1087 L 1020 1087 L 1020 1101 L 1007 1101 Z M 1007 1087 " clip-rule="nonzero"/></clipPath><clipPath id="ab6ec81521"><path d="M 1018.773438 1100.617188 L 1007.554688 1100.101562 L 1008.136719 1087.484375 L 1019.355469 1088 Z M 1018.773438 1100.617188 " clip-rule="nonzero"/></clipPath><clipPath id="12113da63d"><path d="M 1013.164062 1100.359375 C 1016.261719 1100.503906 1018.902344 1097.796875 1019.0625 1094.3125 C 1019.222656 1090.828125 1016.84375 1087.890625 1013.746094 1087.746094 C 1010.648438 1087.601562 1008.007812 1090.3125 1007.847656 1093.792969 C 1007.6875 1097.277344 1010.066406 1100.21875 1013.164062 1100.359375 Z M 1013.164062 1100.359375 " clip-rule="nonzero"/></clipPath><clipPath id="772944d92e"><path d="M 0.519531 0.441406 L 12.28125 0.441406 L 12.28125 13.640625 L 0.519531 13.640625 Z M 0.519531 0.441406 " clip-rule="nonzero"/></clipPath><clipPath id="c218ee6a2d"><path d="M 11.773438 13.617188 L 0.554688 13.101562 L 1.136719 0.484375 L 12.355469 1 Z M 11.773438 13.617188 " clip-rule="nonzero"/></clipPath><clipPath id="b22edf8e95"><path d="M 6.164062 13.359375 C 9.261719 13.503906 11.902344 10.796875 12.0625 7.3125 C 12.222656 3.828125 9.84375 0.890625 6.746094 0.746094 C 3.648438 0.601562 1.007812 3.3125 0.847656 6.792969 C 0.6875 10.277344 3.066406 13.21875 6.164062 13.359375 Z M 6.164062 13.359375 " clip-rule="nonzero"/></clipPath><clipPath id="a8dcf7546f"><rect x="0" width="13" y="0" height="14"/></clipPath><clipPath id="efe93d033e"><path d="M 942 1114 L 955 1114 L 955 1127 L 942 1127 Z M 942 1114 " clip-rule="nonzero"/></clipPath><clipPath id="4382ad8caa"><path d="M 953.734375 1126.90625 L 942.519531 1126.390625 L 943.101562 1113.773438 L 954.316406 1114.289062 Z M 953.734375 1126.90625 " clip-rule="nonzero"/></clipPath><clipPath id="78595f440e"><path d="M 948.125 1126.648438 C 951.222656 1126.792969 953.863281 1124.082031 954.023438 1120.601562 C 954.183594 1117.117188 951.804688 1114.175781 948.707031 1114.035156 C 945.609375 1113.890625 942.96875 1116.597656 942.808594 1120.082031 C 942.648438 1123.566406 945.027344 1126.503906 948.125 1126.648438 Z M 948.125 1126.648438 " clip-rule="nonzero"/></clipPath><clipPath id="0c91a03d88"><path d="M 0.480469 0 L 12.238281 0 L 12.238281 12.800781 L 0.480469 12.800781 Z M 0.480469 0 " clip-rule="nonzero"/></clipPath><clipPath id="c5d82c33f7"><path d="M 11.734375 12.90625 L 0.519531 12.390625 L 1.101562 -0.226562 L 12.316406 0.289062 Z M 11.734375 12.90625 " clip-rule="nonzero"/></clipPath><clipPath id="e9ff2933d7"><path d="M 6.125 12.648438 C 9.222656 12.792969 11.863281 10.082031 12.023438 6.601562 C 12.183594 3.117188 9.804688 0.175781 6.707031 0.0351562 C 3.609375 -0.109375 0.96875 2.597656 0.808594 6.082031 C 0.648438 9.566406 3.027344 12.503906 6.125 12.648438 Z M 6.125 12.648438 " clip-rule="nonzero"/></clipPath><clipPath id="ff9885458e"><rect x="0" width="13" y="0" height="13"/></clipPath><clipPath id="1131e5b554"><path d="M 983 1024 L 995 1024 L 995 1037 L 983 1037 Z M 983 1024 " clip-rule="nonzero"/></clipPath><clipPath id="1d1e3bcc0d"><path d="M 993.96875 1036.875 L 982.75 1036.359375 L 983.335938 1023.742188 L 994.550781 1024.257812 Z M 993.96875 1036.875 " clip-rule="nonzero"/></clipPath><clipPath id="598f249bf3"><path d="M 988.359375 1036.617188 C 991.457031 1036.761719 994.097656 1034.050781 994.257812 1030.570312 C 994.417969 1027.085938 992.039062 1024.144531 988.941406 1024.003906 C 985.84375 1023.859375 983.203125 1026.566406 983.042969 1030.050781 C 982.882812 1033.535156 985.261719 1036.472656 988.359375 1036.617188 Z M 988.359375 1036.617188 " clip-rule="nonzero"/></clipPath><clipPath id="c0fbce7f0e"><path d="M 0 0 L 11.558594 0 L 11.558594 12.800781 L 0 12.800781 Z M 0 0 " clip-rule="nonzero"/></clipPath><clipPath id="761499ff0e"><path d="M 10.96875 12.875 L -0.25 12.359375 L 0.335938 -0.257812 L 11.550781 0.257812 Z M 10.96875 12.875 " clip-rule="nonzero"/></clipPath><clipPath id="2bf96c92c2"><path d="M 5.359375 12.617188 C 8.457031 12.761719 11.097656 10.050781 11.257812 6.570312 C 11.417969 3.085938 9.039062 0.144531 5.941406 0.00390625 C 2.84375 -0.140625 0.203125 2.566406 0.0429688 6.050781 C -0.117188 9.535156 2.261719 12.472656 5.359375 12.617188 Z M 5.359375 12.617188 " clip-rule="nonzero"/></clipPath><clipPath id="7908e8061a"><rect x="0" width="12" y="0" height="13"/></clipPath><clipPath id="360ea159b5"><path d="M 44 952 L 65.964844 952 L 65.964844 972.539062 L 44 972.539062 Z M 44 952 " clip-rule="nonzero"/></clipPath></defs><g clip-path="url(#bc711425b1)"><path fill="#f8981c" d="M 125.003906 63.042969 C 124.339844 59.894531 124.769531 56.226562 126.824219 56.671875 C 128.882812 57.117188 129.046875 62.730469 129.046875 62.730469 C 129.046875 62.730469 132.023438 57.378906 134.941406 58.566406 C 137.285156 59.519531 132.125 65.152344 132.125 65.152344 C 132.125 65.152344 138.234375 64.882812 139.3125 67.019531 C 140.390625 69.152344 131.996094 68.972656 131.996094 68.972656 C 131.996094 68.972656 134.757812 75.164062 132.09375 76.445312 C 129.425781 77.722656 127.738281 70.699219 127.738281 70.699219 C 127.738281 70.699219 122.773438 76.199219 120.9375 75.03125 C 119.101562 73.867188 124.503906 67.617188 124.503906 67.617188 C 124.503906 67.617188 117.574219 66.839844 117.863281 64.769531 C 118.152344 62.699219 125.003906 63.042969 125.003906 63.042969 Z M 125.003906 63.042969 " fill-opacity="1" fill-rule="nonzero"/></g><g clip-path="url(#6fab788ab8)"><path fill="#f8981c" d="M 940.449219 84.550781 C 939.785156 81.402344 940.214844 77.734375 942.269531 78.179688 C 944.328125 78.625 944.492188 84.238281 944.492188 84.238281 C 944.492188 84.238281 947.46875 78.886719 950.386719 80.074219 C 952.730469 81.027344 947.570312 86.660156 947.570312 86.660156 C 947.570312 86.660156 953.679688 86.390625 954.757812 88.527344 C 955.835938 90.660156 947.441406 90.480469 947.441406 90.480469 C 947.441406 90.480469 950.203125 96.671875 947.539062 97.953125 C 944.871094 99.230469 943.183594 92.207031 943.183594 92.207031 C 943.183594 92.207031 938.21875 97.707031 936.382812 96.539062 C 934.546875 95.375 939.949219 89.125 939.949219 89.125 C 939.949219 89.125 933.019531 88.347656 933.308594 86.277344 C 933.597656 84.207031 940.449219 84.550781 940.449219 84.550781 Z M 940.449219 84.550781 " fill-opacity="1" fill-rule="nonzero"/></g><g clip-path="url(#dad9493a16)"><path fill="#f8981c" d="M 50.578125 226.839844 C 49.910156 223.691406 50.339844 220.023438 52.398438 220.46875 C 54.453125 220.914062 54.617188 226.527344 54.617188 226.527344 C 54.617188 226.527344 57.59375 221.175781 60.515625 222.363281 C 62.855469 223.316406 57.695312 228.949219 57.695312 228.949219 C 57.695312 228.949219 63.804688 228.679688 64.882812 230.816406 C 65.960938 232.949219 57.566406 232.769531 57.566406 232.769531 C 57.566406 232.769531 60.328125 238.960938 57.664062 240.242188 C 55 241.519531 53.308594 234.496094 53.308594 234.496094 C 53.308594 234.496094 48.34375 239.996094 46.507812 238.828125 C 44.671875 237.664062 50.074219 231.414062 50.074219 231.414062 C 50.074219 231.414062 43.144531 230.636719 43.433594 228.566406 C 43.722656 226.496094 50.578125 226.839844 50.578125 226.839844 Z M 50.578125 226.839844 " fill-opacity="1" fill-rule="nonzero"/></g><g clip-path="url(#31b0166ab1)"><g clip-path="url(#9a6ed1ff92)"><g transform="matrix(1, 0, 0, 1, 71, 118)"><g clip-path="url(#68808183f2)"><g clip-path="url(#a636f60f4b)"><g clip-path="url(#42b2cc5c2b)"><path fill="#ee4438" d="M 0.542969 0.0898438 L 13.171875 0.0898438 L 13.171875 12.714844 L 0.542969 12.714844 Z M 0.542969 0.0898438 " fill-opacity="1" fill-rule="nonzero"/></g></g></g></g></g></g><g clip-path="url(#1bacdecda4)"><g clip-path="url(#6af6fcd4aa)"><g transform="matrix(1, 0, 0, 1, 992, 35)"><g clip-path="url(#defb55e8c2)"><g clip-path="url(#864ae54e48)"><g clip-path="url(#9413a5b0fc)"><path fill="#4455a5" d="M 0.183594 0.707031 L 12.808594 0.707031 L 12.808594 13.335938 L 0.183594 13.335938 Z M 0.183594 0.707031 " fill-opacity="1" fill-rule="nonzero"/></g></g></g></g></g></g><g clip-path="url(#3c138e7c13)"><g clip-path="url(#cafa934fbe)"><g transform="matrix(1, 0, 0, 1, 125, 210)"><g clip-path="url(#5403e20f13)"><g clip-path="url(#1b15231dcc)"><g clip-path="url(#0263bade5f)"><path fill="#4455a5" d="M 0.5625 0.679688 L 13.191406 0.679688 L 13.191406 13.308594 L 0.5625 13.308594 Z M 0.5625 0.679688 " fill-opacity="1" fill-rule="nonzero"/></g></g></g></g></g></g><g clip-path="url(#39b4efecf3)"><g clip-path="url(#cfdaea74f3)"><g transform="matrix(1, 0, 0, 1, 146, 302)"><g clip-path="url(#a0773042b0)"><g clip-path="url(#bc9d3bd1cc)"><g clip-path="url(#26d63f4eff)"><path fill="#ea1b64" d="M 0.695312 0.484375 L 13.324219 0.484375 L 13.324219 13.113281 L 0.695312 13.113281 Z M 0.695312 0.484375 " fill-opacity="1" fill-rule="nonzero"/></g></g></g></g></g></g><g clip-path="url(#53325c7d11)"><g clip-path="url(#c4ce28e80c)"><g transform="matrix(1, 0, 0, 1, 916, 12)"><g clip-path="url(#a8513a1410)"><g clip-path="url(#debedc8100)"><g clip-path="url(#417634e5e2)"><path fill="#903e98" d="M 0.246094 0.628906 L 12.871094 0.628906 L 12.871094 13.253906 L 0.246094 13.253906 Z M 0.246094 0.628906 " fill-opacity="1" fill-rule="nonzero"/></g></g></g></g></g></g><g clip-path="url(#fc99bb84ef)"><g clip-path="url(#716e8cc18c)"><g transform="matrix(1, 0, 0, 1, 982, 402)"><g clip-path="url(#30fa526445)"><g clip-path="url(#a708ac50d8)"><g clip-path="url(#cb58242e84)"><path fill="#ea1b64" d="M 0.359375 0.046875 L 12.988281 0.046875 L 12.988281 12.671875 L 0.359375 12.671875 Z M 0.359375 0.046875 " fill-opacity="1" fill-rule="nonzero"/></g></g></g></g></g></g><g clip-path="url(#ffd96a05c4)"><path fill="#f8981c" d="M 900.855469 460.148438 C 900.1875 457 900.617188 453.332031 902.675781 453.777344 C 904.730469 454.222656 904.894531 459.835938 904.894531 459.835938 C 904.894531 459.835938 907.871094 454.484375 910.792969 455.671875 C 913.132812 456.625 907.972656 462.257812 907.972656 462.257812 C 907.972656 462.257812 914.082031 461.988281 915.160156 464.125 C 916.238281 466.257812 907.84375 466.078125 907.84375 466.078125 C 907.84375 466.078125 910.609375 472.269531 907.941406 473.550781 C 905.277344 474.828125 903.585938 467.804688 903.585938 467.804688 C 903.585938 467.804688 898.621094 473.304688 896.785156 472.140625 C 894.949219 470.972656 900.351562 464.722656 900.351562 464.722656 C 900.351562 464.722656 893.421875 463.945312 893.710938 461.875 C 894.003906 459.804688 900.855469 460.148438 900.855469 460.148438 Z M 900.855469 460.148438 " fill-opacity="1" fill-rule="nonzero"/></g><g clip-path="url(#8cf9bbee3f)"><g clip-path="url(#054c5ee153)"><g transform="matrix(1, 0, 0, 1, 946, 628)"><g clip-path="url(#3022754e77)"><g clip-path="url(#f72565e7bb)"><g clip-path="url(#cd65a6785f)"><path fill="#903e98" d="M 0.914062 0.613281 L 13.539062 0.613281 L 13.539062 13.238281 L 0.914062 13.238281 Z M 0.914062 0.613281 " fill-opacity="1" fill-rule="nonzero"/></g></g></g></g></g></g><path fill="#f8981c" d="M 1024.324219 896.726562 C 1023.660156 893.578125 1024.089844 889.910156 1026.144531 890.355469 C 1028.199219 890.800781 1028.363281 896.414062 1028.363281 896.414062 C 1028.363281 896.414062 1031.34375 891.0625 1034.261719 892.25 C 1036.601562 893.203125 1031.441406 898.835938 1031.441406 898.835938 C 1031.441406 898.835938 1037.554688 898.566406 1038.628906 900.703125 C 1039.707031 902.835938 1031.3125 902.65625 1031.3125 902.65625 C 1031.3125 902.65625 1034.078125 908.847656 1031.410156 910.128906 C 1028.746094 911.40625 1027.054688 904.382812 1027.054688 904.382812 C 1027.054688 904.382812 1022.089844 909.882812 1020.253906 908.71875 C 1018.417969 907.550781 1023.820312 901.300781 1023.820312 901.300781 C 1023.820312 901.300781 1016.890625 900.523438 1017.179688 898.453125 C 1017.472656 896.382812 1024.324219 896.726562 1024.324219 896.726562 Z M 1024.324219 896.726562 " fill-opacity="1" fill-rule="nonzero"/><g clip-path="url(#932c2ca711)"><g clip-path="url(#9ee802a012)"><g transform="matrix(1, 0, 0, 1, 959, 808)"><g clip-path="url(#aa9cdfbde1)"><g clip-path="url(#2dbc1096e8)"><g clip-path="url(#2e19a7096d)"><path fill="#4455a5" d="M 0.539062 0.746094 L 13.167969 0.746094 L 13.167969 13.375 L 0.539062 13.375 Z M 0.539062 0.746094 " fill-opacity="1" fill-rule="nonzero"/></g></g></g></g></g></g><g clip-path="url(#d3ca03c440)"><g clip-path="url(#a1647e5ef0)"><g transform="matrix(1, 0, 0, 1, 1001, 753)"><g clip-path="url(#7031127a56)"><g clip-path="url(#dd6aadc4d7)"><g clip-path="url(#c611cb6e4c)"><path fill="#f8981c" d="M 0.398438 0.921875 L 13.023438 0.921875 L 13.023438 13.546875 L 0.398438 13.546875 Z M 0.398438 0.921875 " fill-opacity="1" fill-rule="nonzero"/></g></g></g></g></g></g><g clip-path="url(#3b773f9918)"><g clip-path="url(#216b274079)"><g transform="matrix(1, 0, 0, 1, 125, 667)"><g clip-path="url(#894d462cc0)"><g clip-path="url(#1d8331c889)"><g clip-path="url(#1052197558)"><path fill="#ea1b64" d="M 0.5625 0.4375 L 13.191406 0.4375 L 13.191406 13.066406 L 0.5625 13.066406 Z M 0.5625 0.4375 " fill-opacity="1" fill-rule="nonzero"/></g></g></g></g></g></g><g clip-path="url(#87212c09d2)"><g clip-path="url(#bd24334ad7)"><g transform="matrix(1, 0, 0, 1, 134, 923)"><g clip-path="url(#d47682c27e)"><g clip-path="url(#1825a27e7e)"><g clip-path="url(#882fe2c417)"><path fill="#903e98" d="M 0.0703125 0.660156 L 12.695312 0.660156 L 12.695312 13.285156 L 0.0703125 13.285156 Z M 0.0703125 0.660156 " fill-opacity="1" fill-rule="nonzero"/></g></g></g></g></g></g><g clip-path="url(#ec96f2f628)"><g clip-path="url(#306cd322e7)"><g transform="matrix(1, 0, 0, 1, 28, 750)"><g clip-path="url(#6c09e4a6c4)"><g clip-path="url(#bc2172db74)"><g clip-path="url(#e8c0093bb9)"><path fill="#ee4438" d="M 0.480469 0.574219 L 13.109375 0.574219 L 13.109375 13.203125 L 0.480469 13.203125 Z M 0.480469 0.574219 " fill-opacity="1" fill-rule="nonzero"/></g></g></g></g></g></g><g clip-path="url(#0845a56a1d)"><path fill="#f8981c" d="M 94 800.945312 C 93.335938 797.796875 93.765625 794.128906 95.820312 794.574219 C 97.875 795.019531 98.039062 800.628906 98.039062 800.628906 C 98.039062 800.628906 101.019531 795.28125 103.9375 796.46875 C 106.277344 797.421875 101.117188 803.050781 101.117188 803.050781 C 101.117188 803.050781 107.230469 802.785156 108.304688 804.917969 C 109.382812 807.050781 100.988281 806.875 100.988281 806.875 C 100.988281 806.875 103.753906 813.066406 101.085938 814.34375 C 98.421875 815.625 96.730469 808.597656 96.730469 808.597656 C 96.730469 808.597656 91.765625 814.097656 89.929688 812.933594 C 88.09375 811.769531 93.496094 805.519531 93.496094 805.519531 C 93.496094 805.519531 86.566406 804.738281 86.855469 802.667969 C 87.148438 800.601562 94 800.945312 94 800.945312 Z M 94 800.945312 " fill-opacity="1" fill-rule="nonzero"/></g><path fill="#903e98" d="M -119.648438 330.269531 C -128.703125 339.273438 -132.644531 353.109375 -129.691406 365.53125 C -126.316406 379.722656 -114.746094 391.992188 -115.703125 406.542969 C -116.8125 423.386719 -133.683594 434.082031 -142.890625 448.230469 C -149.996094 459.152344 -152.527344 473.207031 -148.582031 485.625 C -144.640625 498.042969 -133.925781 508.347656 -121.121094 510.757812 C -106.414062 513.527344 -91.339844 506.25 -76.507812 508.25 C -62.945312 510.082031 -51.753906 519.273438 -40.316406 526.785156 C -28.878906 534.300781 -14.675781 540.566406 -1.835938 535.828125 C 14.652344 529.742188 20.117188 509.382812 32.410156 496.824219 C 40.960938 488.089844 52.667969 483.355469 63.152344 477.066406 C 73.632812 470.773438 83.765625 461.554688 85.257812 449.417969 C 87.667969 429.796875 67.363281 415.316406 60.667969 396.71875 C 55.761719 383.082031 58.457031 367.675781 53.972656 353.894531 C 45.984375 329.347656 17.652344 317.183594 -8.140625 316.136719 C -29.328125 315.277344 -49.921875 320.613281 -70.980469 321.125 C -88.679688 321.558594 -105.179688 315.882812 -119.648438 330.269531 Z M -119.648438 330.269531 " fill-opacity="1" fill-rule="nonzero"/><g clip-path="url(#e8236f8658)"><g clip-path="url(#ef5e9dbb64)"><g transform="matrix(1, 0, 0, 1, 97, 508)"><g clip-path="url(#21e47c8d16)"><g clip-path="url(#50c210e849)"><g clip-path="url(#3e4b36862f)"><path fill="#ee4438" d="M 0.980469 0.4375 L 13.605469 0.4375 L 13.605469 13.0625 L 0.980469 13.0625 Z M 0.980469 0.4375 " fill-opacity="1" fill-rule="nonzero"/></g></g></g></g></g></g><g clip-path="url(#0b3e90eacb)"><g clip-path="url(#a92d828cde)"><g transform="matrix(1, 0, 0, 1, 97, 408)"><g clip-path="url(#1d1bb7eda3)"><g clip-path="url(#ea620f36e8)"><g clip-path="url(#31fc67967a)"><path fill="#903e98" d="M 0.980469 0.359375 L 13.605469 0.359375 L 13.605469 12.988281 L 0.980469 12.988281 Z M 0.980469 0.359375 " fill-opacity="1" fill-rule="nonzero"/></g></g></g></g></g></g><g clip-path="url(#8bf4370d72)"><g clip-path="url(#2db10249ef)"><g transform="matrix(1, 0, 0, 1, 52, 600)"><g clip-path="url(#98d606fc9d)"><g clip-path="url(#7bb6961730)"><g clip-path="url(#bbebeddcf2)"><path fill="#4455a5" d="M 0.605469 0.242188 L 13.230469 0.242188 L 13.230469 12.867188 L 0.605469 12.867188 Z M 0.605469 0.242188 " fill-opacity="1" fill-rule="nonzero"/></g></g></g></g></g></g><g clip-path="url(#9360b8e55c)"><path fill="#f8981c" d="M 1005.375 694.75 C 1006.039062 697.898438 1005.609375 701.566406 1003.554688 701.121094 C 1001.5 700.675781 1001.332031 695.0625 1001.332031 695.0625 C 1001.332031 695.0625 998.355469 700.414062 995.4375 699.226562 C 993.097656 698.273438 998.257812 692.640625 998.257812 692.640625 C 998.257812 692.640625 992.144531 692.910156 991.066406 690.773438 C 989.992188 688.640625 998.382812 688.820312 998.382812 688.820312 C 998.382812 688.820312 995.621094 682.628906 998.285156 681.347656 C 1000.953125 680.070312 1002.640625 687.09375 1002.640625 687.09375 C 1002.640625 687.09375 1007.605469 681.59375 1009.441406 682.761719 C 1011.277344 683.925781 1005.878906 690.175781 1005.878906 690.175781 C 1005.878906 690.175781 1012.804688 690.953125 1012.515625 693.023438 C 1012.226562 695.09375 1005.375 694.75 1005.375 694.75 Z M 1005.375 694.75 " fill-opacity="1" fill-rule="nonzero"/></g><g clip-path="url(#021f107582)"><path fill="#f8981c" d="M 1023.332031 330.679688 C 1023.996094 333.828125 1023.566406 337.496094 1021.511719 337.050781 C 1019.457031 336.605469 1019.289062 330.992188 1019.289062 330.992188 C 1019.289062 330.992188 1016.3125 336.34375 1013.394531 335.15625 C 1011.054688 334.203125 1016.214844 328.570312 1016.214844 328.570312 C 1016.214844 328.570312 1010.101562 328.839844 1009.023438 326.703125 C 1007.949219 324.570312 1016.34375 324.75 1016.34375 324.75 C 1016.34375 324.75 1013.578125 318.558594 1016.246094 317.277344 C 1018.910156 316 1020.601562 323.023438 1020.601562 323.023438 C 1020.601562 323.023438 1025.5625 317.523438 1027.398438 318.6875 C 1029.234375 319.855469 1023.835938 326.105469 1023.835938 326.105469 C 1023.835938 326.105469 1030.765625 326.882812 1030.472656 328.953125 C 1030.183594 331.023438 1023.332031 330.679688 1023.332031 330.679688 Z M 1023.332031 330.679688 " fill-opacity="1" fill-rule="nonzero"/></g><g clip-path="url(#c1c18cd3f1)"><g clip-path="url(#96933a00e8)"><g transform="matrix(1, 0, 0, 1, 1004, 540)"><g clip-path="url(#515911ec27)"><g clip-path="url(#746e8c2307)"><g clip-path="url(#cd82ac9919)"><path fill="#ee4438" d="M 13.429688 13.511719 L 0.804688 13.511719 L 0.804688 0.882812 L 13.429688 0.882812 Z M 13.429688 13.511719 " fill-opacity="1" fill-rule="nonzero"/></g></g></g></g></g></g><g clip-path="url(#8551e59834)"><g clip-path="url(#3fc7a7babf)"><g transform="matrix(1, 0, 0, 1, 935, 334)"><g clip-path="url(#458719fdbd)"><g clip-path="url(#3942cf7a0e)"><g clip-path="url(#214644c290)"><path fill="#4455a5" d="M 13.34375 12.835938 L 0.714844 12.835938 L 0.714844 0.210938 L 13.34375 0.210938 Z M 13.34375 12.835938 " fill-opacity="1" fill-rule="nonzero"/></g></g></g></g></g></g><g clip-path="url(#6afdd2c317)"><g clip-path="url(#4ef7d5a3f4)"><g transform="matrix(1, 0, 0, 1, 968, 263)"><g clip-path="url(#b5763bdc4c)"><g clip-path="url(#fe7d98fe3f)"><g clip-path="url(#184ae7317e)"><path fill="#ea1b64" d="M 12.765625 13.277344 L 0.140625 13.277344 L 0.140625 0.648438 L 12.765625 0.648438 Z M 12.765625 13.277344 " fill-opacity="1" fill-rule="nonzero"/></g></g></g></g></g></g><g clip-path="url(#6aa2e0fd4d)"><path fill="#f8981c" d="M 1192.03125 227.003906 C 1201.085938 218.003906 1205.027344 204.164062 1202.074219 191.742188 C 1198.699219 177.550781 1187.125 165.28125 1188.085938 150.730469 C 1189.195312 133.886719 1206.066406 123.191406 1215.273438 109.042969 C 1222.378906 98.121094 1224.910156 84.066406 1220.964844 71.648438 C 1217.023438 59.230469 1206.308594 48.925781 1193.503906 46.519531 C 1178.796875 43.75 1163.722656 51.023438 1148.890625 49.023438 C 1135.328125 47.191406 1124.136719 38 1112.699219 30.488281 C 1101.261719 22.972656 1087.058594 16.707031 1074.21875 21.445312 C 1057.730469 27.53125 1052.265625 47.890625 1039.96875 60.449219 C 1031.417969 69.183594 1019.714844 73.917969 1009.230469 80.207031 C 998.75 86.5 988.617188 95.71875 987.125 107.855469 C 984.714844 127.476562 1005.019531 141.957031 1011.710938 160.554688 C 1016.621094 174.191406 1013.925781 189.597656 1018.410156 203.378906 C 1026.398438 227.925781 1054.730469 240.089844 1080.523438 241.136719 C 1101.710938 241.996094 1122.304688 236.660156 1143.363281 236.148438 C 1161.0625 235.714844 1177.5625 241.390625 1192.03125 227.003906 Z M 1192.03125 227.003906 " fill-opacity="1" fill-rule="nonzero"/></g><g clip-path="url(#43cb6bf959)"><g clip-path="url(#470a55a767)"><g transform="matrix(1, 0, 0, 1, 28, 18)"><g clip-path="url(#3eac42ed8e)"><g clip-path="url(#c763d115bf)"><g clip-path="url(#a2f7a9eecb)"><path fill="#903e98" d="M 13.101562 13.472656 L 0.476562 13.472656 L 0.476562 0.84375 L 13.101562 0.84375 Z M 13.101562 13.472656 " fill-opacity="1" fill-rule="nonzero"/></g></g></g></g></g></g><g clip-path="url(#1d5586d654)"><g clip-path="url(#254ddb6268)"><g transform="matrix(1, 0, 0, 1, 963, 136)"><g clip-path="url(#160db33186)"><g clip-path="url(#52af77c996)"><g clip-path="url(#aec6cfa08c)"><path fill="#903e98" d="M 12.925781 13.15625 L 0.300781 13.15625 L 0.300781 0.53125 L 12.925781 0.53125 Z M 12.925781 13.15625 " fill-opacity="1" fill-rule="nonzero"/></g></g></g></g></g></g><path fill="#ea1b64" d="M 1012.589844 987.425781 C 1021.589844 996.480469 1035.429688 1000.421875 1047.851562 997.46875 C 1062.042969 994.09375 1074.3125 982.523438 1088.863281 983.480469 C 1105.707031 984.589844 1116.402344 1001.460938 1130.550781 1010.667969 C 1141.472656 1017.773438 1155.523438 1020.304688 1167.945312 1016.359375 C 1180.363281 1012.417969 1190.667969 1001.703125 1193.074219 988.898438 C 1195.84375 974.191406 1188.570312 959.117188 1190.570312 944.285156 C 1192.402344 930.722656 1201.59375 919.53125 1209.105469 908.09375 C 1216.621094 896.65625 1222.886719 882.453125 1218.148438 869.613281 C 1212.0625 853.125 1191.703125 847.660156 1179.144531 835.367188 C 1170.410156 826.816406 1165.675781 815.109375 1159.386719 804.625 C 1153.09375 794.144531 1143.871094 784.011719 1131.738281 782.519531 C 1112.117188 780.109375 1097.636719 800.414062 1079.039062 807.109375 C 1065.398438 812.015625 1049.996094 809.320312 1036.214844 813.804688 C 1011.667969 821.792969 999.503906 850.125 998.457031 875.917969 C 997.597656 897.105469 1002.933594 917.699219 1003.445312 938.757812 C 1003.878906 956.457031 998.203125 972.957031 1012.589844 987.425781 Z M 1012.589844 987.425781 " fill-opacity="1" fill-rule="nonzero"/><g clip-path="url(#3b1853cebf)"><g clip-path="url(#7c1562741e)"><g transform="matrix(1, 0, 0, 1, 28, 1075)"><g clip-path="url(#ae90c03493)"><g clip-path="url(#d9b1fe5097)"><g clip-path="url(#60311ebc3e)"><path fill="#903e98" d="M 0.480469 0.332031 L 13.109375 0.332031 L 13.109375 12.957031 L 0.480469 12.957031 Z M 0.480469 0.332031 " fill-opacity="1" fill-rule="nonzero"/></g></g></g></g></g></g><g clip-path="url(#1923a08153)"><g clip-path="url(#cba58c93d7)"><g transform="matrix(1, 0, 0, 1, 100, 1046)"><g clip-path="url(#cd3c490462)"><g clip-path="url(#f207242f9b)"><g clip-path="url(#3383a043b6)"><path fill="#ea1b64" d="M 0.1875 0.0742188 L 12.8125 0.0742188 L 12.8125 12.699219 L 0.1875 12.699219 Z M 0.1875 0.0742188 " fill-opacity="1" fill-rule="nonzero"/></g></g></g></g></g></g><g clip-path="url(#056c248e7e)"><g clip-path="url(#ce74fd1b08)"><g transform="matrix(1, 0, 0, 1, 59, 1137)"><g clip-path="url(#12b4543a68)"><g clip-path="url(#0751003a25)"><g clip-path="url(#05d0fe0f84)"><path fill="#4455a5" d="M 0.652344 0.863281 L 13.28125 0.863281 L 13.28125 13.492188 L 0.652344 13.492188 Z M 0.652344 0.863281 " fill-opacity="1" fill-rule="nonzero"/></g></g></g></g></g></g><g clip-path="url(#db324bee9d)"><g clip-path="url(#ab6ec81521)"><g clip-path="url(#12113da63d)"><g transform="matrix(1, 0, 0, 1, 1007, 1087)"><g clip-path="url(#a8dcf7546f)"><g clip-path="url(#772944d92e)"><g clip-path="url(#c218ee6a2d)"><g clip-path="url(#b22edf8e95)"><path fill="#903e98" d="M 11.773438 13.617188 L 0.554688 13.101562 L 1.136719 0.484375 L 12.355469 1 Z M 11.773438 13.617188 " fill-opacity="1" fill-rule="nonzero"/></g></g></g></g></g></g></g></g><g clip-path="url(#efe93d033e)"><g clip-path="url(#4382ad8caa)"><g clip-path="url(#78595f440e)"><g transform="matrix(1, 0, 0, 1, 942, 1114)"><g clip-path="url(#ff9885458e)"><g clip-path="url(#0c91a03d88)"><g clip-path="url(#c5d82c33f7)"><g clip-path="url(#e9ff2933d7)"><path fill="#ea1b64" d="M 11.734375 12.90625 L 0.519531 12.390625 L 1.101562 -0.226562 L 12.316406 0.289062 Z M 11.734375 12.90625 " fill-opacity="1" fill-rule="nonzero"/></g></g></g></g></g></g></g></g><g clip-path="url(#1131e5b554)"><g clip-path="url(#1d1e3bcc0d)"><g clip-path="url(#598f249bf3)"><g transform="matrix(1, 0, 0, 1, 983, 1024)"><g clip-path="url(#7908e8061a)"><g clip-path="url(#c0fbce7f0e)"><g clip-path="url(#761499ff0e)"><g clip-path="url(#2bf96c92c2)"><path fill="#4455a5" d="M 10.96875 12.875 L -0.25 12.359375 L 0.335938 -0.257812 L 11.550781 0.257812 Z M 10.96875 12.875 " fill-opacity="1" fill-rule="nonzero"/></g></g></g></g></g></g></g></g><g clip-path="url(#360ea159b5)"><path fill="#f8981c" d="M 58.535156 965.71875 C 59.199219 968.863281 58.769531 972.535156 56.714844 972.089844 C 54.660156 971.644531 54.492188 966.03125 54.492188 966.03125 C 54.492188 966.03125 51.515625 971.382812 48.597656 970.195312 C 46.257812 969.242188 51.417969 963.609375 51.417969 963.609375 C 51.417969 963.609375 45.304688 963.878906 44.226562 961.742188 C 43.152344 959.609375 51.546875 959.789062 51.546875 959.789062 C 51.546875 959.789062 48.78125 953.597656 51.445312 952.316406 C 54.113281 951.035156 55.804688 958.0625 55.804688 958.0625 C 55.804688 958.0625 60.765625 952.5625 62.601562 953.726562 C 64.4375 954.894531 59.039062 961.144531 59.039062 961.144531 C 59.039062 961.144531 65.96875 961.921875 65.675781 963.992188 C 65.386719 966.0625 58.535156 965.71875 58.535156 965.71875 Z M 58.535156 965.71875 " fill-opacity="1" fill-rule="nonzero"/></g></svg>