<svg xmlns="http://www.w3.org/2000/svg" xmlns:xlink="http://www.w3.org/1999/xlink" width="1440" zoomAndPan="magnify" viewBox="0 0 1080 112.499997" height="150" preserveAspectRatio="xMidYMid meet" version="1.0"><defs><clipPath id="aec1fd9a02"><path d="M 533.667969 105.839844 L 534.6875 105.839844 L 534.6875 106.855469 L 533.667969 106.855469 Z M 533.667969 105.839844 " clip-rule="nonzero"/></clipPath><clipPath id="d3130f4308"><path d="M 533.667969 106.347656 C 533.667969 106.628906 533.894531 106.855469 534.175781 106.855469 C 534.457031 106.855469 534.6875 106.628906 534.6875 106.347656 C 534.6875 106.066406 534.457031 105.839844 534.175781 105.839844 C 533.894531 105.839844 533.667969 106.066406 533.667969 106.347656 Z M 533.667969 106.347656 " clip-rule="nonzero"/></clipPath><clipPath id="8377161de4"><path d="M 0.667969 0.839844 L 1.6875 0.839844 L 1.6875 1.855469 L 0.667969 1.855469 Z M 0.667969 0.839844 " clip-rule="nonzero"/></clipPath><clipPath id="4b4b8b81f5"><path d="M 0.667969 1.347656 C 0.667969 1.628906 0.894531 1.855469 1.175781 1.855469 C 1.457031 1.855469 1.6875 1.628906 1.6875 1.347656 C 1.6875 1.066406 1.457031 0.839844 1.175781 0.839844 C 0.894531 0.839844 0.667969 1.066406 0.667969 1.347656 Z M 0.667969 1.347656 " clip-rule="nonzero"/></clipPath><clipPath id="12693dcd3c"><rect x="0" width="2" y="0" height="2"/></clipPath><clipPath id="1b991ec5b9"><path d="M 569.304688 106.339844 L 570.796875 106.339844 L 570.796875 107.835938 L 569.304688 107.835938 Z M 569.304688 106.339844 " clip-rule="nonzero"/></clipPath><clipPath id="04ab398777"><path d="M 546.246094 105.898438 L 547.265625 105.898438 L 547.265625 106.917969 L 546.246094 106.917969 Z M 546.246094 105.898438 " clip-rule="nonzero"/></clipPath><clipPath id="6bf9211dea"><path d="M 546.246094 106.410156 C 546.246094 106.691406 546.472656 106.917969 546.757812 106.917969 C 547.039062 106.917969 547.265625 106.691406 547.265625 106.410156 C 547.265625 106.128906 547.039062 105.898438 546.757812 105.898438 C 546.472656 105.898438 546.246094 106.128906 546.246094 106.410156 Z M 546.246094 106.410156 " clip-rule="nonzero"/></clipPath><clipPath id="ad3800f472"><path d="M 0.246094 0.898438 L 1.265625 0.898438 L 1.265625 1.917969 L 0.246094 1.917969 Z M 0.246094 0.898438 " clip-rule="nonzero"/></clipPath><clipPath id="4395caa351"><path d="M 0.246094 1.410156 C 0.246094 1.691406 0.472656 1.917969 0.757812 1.917969 C 1.039062 1.917969 1.265625 1.691406 1.265625 1.410156 C 1.265625 1.128906 1.039062 0.898438 0.757812 0.898438 C 0.472656 0.898438 0.246094 1.128906 0.246094 1.410156 Z M 0.246094 1.410156 " clip-rule="nonzero"/></clipPath><clipPath id="0df3ce1bc7"><rect x="0" width="2" y="0" height="2"/></clipPath><clipPath id="03379138eb"><path d="M 553.65625 109.5625 L 554.675781 109.5625 L 554.675781 110.582031 L 553.65625 110.582031 Z M 553.65625 109.5625 " clip-rule="nonzero"/></clipPath><clipPath id="dbea54539f"><path d="M 553.65625 110.074219 C 553.65625 110.355469 553.882812 110.582031 554.164062 110.582031 C 554.449219 110.582031 554.675781 110.355469 554.675781 110.074219 C 554.675781 109.789062 554.449219 109.5625 554.164062 109.5625 C 553.882812 109.5625 553.65625 109.789062 553.65625 110.074219 Z M 553.65625 110.074219 " clip-rule="nonzero"/></clipPath><clipPath id="28ff10cc9d"><path d="M 0.65625 0.5625 L 1.675781 0.5625 L 1.675781 1.582031 L 0.65625 1.582031 Z M 0.65625 0.5625 " clip-rule="nonzero"/></clipPath><clipPath id="3fc07acf72"><path d="M 0.65625 1.074219 C 0.65625 1.355469 0.882812 1.582031 1.164062 1.582031 C 1.449219 1.582031 1.675781 1.355469 1.675781 1.074219 C 1.675781 0.789062 1.449219 0.5625 1.164062 0.5625 C 0.882812 0.5625 0.65625 0.789062 0.65625 1.074219 Z M 0.65625 1.074219 " clip-rule="nonzero"/></clipPath><clipPath id="9de967904a"><rect x="0" width="2" y="0" height="2"/></clipPath><clipPath id="5a71354216"><path d="M 514 109 L 516 109 L 516 111 L 514 111 Z M 514 109 " clip-rule="nonzero"/></clipPath><clipPath id="8967f6470e"><path d="M 515.621094 109.769531 L 515.660156 110.789062 L 514.640625 110.828125 L 514.601562 109.8125 Z M 515.621094 109.769531 " clip-rule="nonzero"/></clipPath><clipPath id="9c785942c2"><path d="M 515.640625 110.28125 C 515.628906 110 515.390625 109.78125 515.109375 109.792969 C 514.828125 109.800781 514.609375 110.039062 514.621094 110.320312 C 514.632812 110.601562 514.871094 110.820312 515.152344 110.808594 C 515.433594 110.796875 515.652344 110.5625 515.640625 110.28125 Z M 515.640625 110.28125 " clip-rule="nonzero"/></clipPath><clipPath id="3ac4f1d809"><path d="M 0.433594 0.671875 L 1.867188 0.671875 L 1.867188 1.867188 L 0.433594 1.867188 Z M 0.433594 0.671875 " clip-rule="nonzero"/></clipPath><clipPath id="41c885e3cc"><path d="M 1.621094 0.769531 L 1.660156 1.789062 L 0.640625 1.828125 L 0.601562 0.8125 Z M 1.621094 0.769531 " clip-rule="nonzero"/></clipPath><clipPath id="e0a4b87355"><path d="M 1.640625 1.28125 C 1.628906 1 1.390625 0.78125 1.109375 0.792969 C 0.828125 0.800781 0.609375 1.039062 0.621094 1.320312 C 0.632812 1.601562 0.871094 1.820312 1.152344 1.808594 C 1.433594 1.796875 1.652344 1.5625 1.640625 1.28125 Z M 1.640625 1.28125 " clip-rule="nonzero"/></clipPath><clipPath id="ccd7c1ddb5"><rect x="0" width="2" y="0" height="2"/></clipPath><clipPath id="126698d346"><path d="M 503 107 L 506 107 L 506 109 L 503 109 Z M 503 107 " clip-rule="nonzero"/></clipPath><clipPath id="29b5b8d6b1"><path d="M 505.273438 107.023438 L 505.332031 108.515625 L 503.839844 108.574219 L 503.78125 107.082031 Z M 505.273438 107.023438 " clip-rule="nonzero"/></clipPath><clipPath id="c59b3fcf76"><path d="M 505.273438 107.023438 L 505.332031 108.515625 L 503.839844 108.574219 L 503.78125 107.082031 Z M 505.273438 107.023438 " clip-rule="nonzero"/></clipPath></defs><g clip-path="url(#aec1fd9a02)"><g clip-path="url(#d3130f4308)"><g transform="matrix(1, 0, 0, 1, 533, 105)"><g clip-path="url(#12693dcd3c)"><g clip-path="url(#8377161de4)"><g clip-path="url(#4b4b8b81f5)"><path fill="#4455a5" d="M 0.667969 1.855469 L 0.667969 0.839844 L 1.6875 0.839844 L 1.6875 1.855469 Z M 0.667969 1.855469 " fill-opacity="1" fill-rule="nonzero"/></g></g></g></g></g></g><g clip-path="url(#1b991ec5b9)"><path fill="#f8981c" d="M 569.851562 107.238281 C 569.601562 107.292969 569.304688 107.257812 569.339844 107.09375 C 569.378906 106.925781 569.828125 106.914062 569.828125 106.914062 C 569.828125 106.914062 569.398438 106.675781 569.492188 106.441406 C 569.570312 106.253906 570.023438 106.667969 570.023438 106.667969 C 570.023438 106.667969 570 106.175781 570.171875 106.089844 C 570.34375 106.003906 570.328125 106.675781 570.328125 106.675781 C 570.328125 106.675781 570.824219 106.457031 570.929688 106.667969 C 571.03125 106.882812 570.46875 107.019531 570.46875 107.019531 C 570.46875 107.019531 570.910156 107.417969 570.816406 107.566406 C 570.722656 107.710938 570.21875 107.277344 570.21875 107.277344 C 570.21875 107.277344 570.15625 107.835938 569.992188 107.8125 C 569.824219 107.789062 569.851562 107.238281 569.851562 107.238281 Z M 569.851562 107.238281 " fill-opacity="1" fill-rule="nonzero"/></g><g clip-path="url(#04ab398777)"><g clip-path="url(#6bf9211dea)"><g transform="matrix(1, 0, 0, 1, 546, 105)"><g clip-path="url(#0df3ce1bc7)"><g clip-path="url(#ad3800f472)"><g clip-path="url(#4395caa351)"><path fill="#ee4438" d="M 0.246094 1.917969 L 0.246094 0.898438 L 1.265625 0.898438 L 1.265625 1.917969 Z M 0.246094 1.917969 " fill-opacity="1" fill-rule="nonzero"/></g></g></g></g></g></g><g clip-path="url(#03379138eb)"><g clip-path="url(#dbea54539f)"><g transform="matrix(1, 0, 0, 1, 553, 109)"><g clip-path="url(#9de967904a)"><g clip-path="url(#28ff10cc9d)"><g clip-path="url(#3fc07acf72)"><path fill="#4455a5" d="M 0.65625 1.582031 L 0.65625 0.5625 L 1.675781 0.5625 L 1.675781 1.582031 Z M 0.65625 1.582031 " fill-opacity="1" fill-rule="nonzero"/></g></g></g></g></g></g><g clip-path="url(#5a71354216)"><g clip-path="url(#8967f6470e)"><g clip-path="url(#9c785942c2)"><g transform="matrix(1, 0, 0, 1, 514, 109)"><g clip-path="url(#ccd7c1ddb5)"><g clip-path="url(#3ac4f1d809)"><g clip-path="url(#41c885e3cc)"><g clip-path="url(#e0a4b87355)"><path fill="#ea1b64" d="M 1.621094 0.769531 L 1.660156 1.789062 L 0.640625 1.828125 L 0.601562 0.8125 Z M 1.621094 0.769531 " fill-opacity="1" fill-rule="nonzero"/></g></g></g></g></g></g></g></g><g clip-path="url(#126698d346)"><g clip-path="url(#29b5b8d6b1)"><g clip-path="url(#c59b3fcf76)"><path fill="#f8981c" d="M 504.75 107.640625 C 505 107.578125 505.296875 107.601562 505.269531 107.765625 C 505.238281 107.933594 504.789062 107.964844 504.789062 107.964844 C 504.789062 107.964844 505.226562 108.183594 505.140625 108.421875 C 505.070312 108.613281 504.605469 108.21875 504.605469 108.21875 C 504.605469 108.21875 504.644531 108.707031 504.476562 108.800781 C 504.308594 108.894531 504.296875 108.21875 504.296875 108.21875 C 504.296875 108.21875 503.808594 108.460938 503.699219 108.25 C 503.585938 108.039062 504.144531 107.882812 504.144531 107.882812 C 504.144531 107.882812 503.6875 107.5 503.777344 107.351562 C 503.863281 107.199219 504.382812 107.613281 504.382812 107.613281 C 504.382812 107.613281 504.421875 107.054688 504.589844 107.074219 C 504.757812 107.089844 504.75 107.640625 504.75 107.640625 Z M 504.75 107.640625 " fill-opacity="1" fill-rule="nonzero"/></g></g></g><path fill="#ee4438" d="M 519.753906 7.023438 C 530.214844 6.410156 540.675781 6.351562 551.140625 6.847656 C 611.703125 6.554688 671.21875 6.847656 675.527344 8.1875 C 678.160156 8.1875 732.421875 7.078125 733.53125 8.476562 C 735.042969 10.34375 765.5 8.417969 775.105469 12.261719 C 785.472656 16.394531 765.324219 15.523438 769.867188 23.15625 C 770.683594 24.554688 766.488281 25.785156 762.472656 28.039062 C 785.949219 27.75 784.484375 35.785156 792.925781 36.304688 C 801.3125 36.886719 787.511719 40.960938 787.453125 40.960938 C 800.089844 40.960938 781.921875 47.308594 788.675781 49.578125 C 796.886719 52.316406 793.042969 55.808594 788.734375 58.664062 C 796.597656 65.710938 783.550781 68.445312 794.324219 72.40625 C 799.972656 74.5625 802.710938 77.476562 795.375 80.558594 C 786.054688 84.519531 792.636719 83.238281 790.191406 85.160156 C 774.117188 97.914062 798.109375 92.4375 793.511719 101.289062 C 793.335938 101.582031 716.992188 103.035156 712.039062 101.988281 C 706.914062 100.882812 694.046875 101.117188 685.078125 101 C 684.789062 101.058594 684.613281 101.058594 684.4375 101.117188 C 671.335938 105.367188 654.855469 103.617188 641.054688 103.617188 C 566.398438 103.617188 480.332031 107.9375 406.957031 104.371094 C 402.125 104.136719 382.207031 107.863281 379.820312 102.5625 C 375.976562 93.945312 352.398438 103.503906 352.800781 95.226562 C 353.324219 84.6875 335.621094 88.355469 328.515625 87.714844 C 289.792969 84.335938 351.167969 84.570312 321.0625 77.988281 C 306.445312 74.84375 312.96875 74.144531 308.078125 70.886719 C 291.886719 60.054688 300.738281 56.386719 306.039062 51.957031 L 305.921875 51.84375 L 306.039062 51.898438 C 308.367188 49.980469 309.996094 47.941406 308.542969 45.03125 C 301.671875 31.636719 315.53125 27.910156 310.695312 24.183594 C 298.46875 14.632812 344.703125 23.890625 346.164062 18.011719 C 347.910156 10.847656 395.25 22.261719 400.667969 15.273438 C 395.660156 5.433594 415.808594 10.152344 420.117188 9.160156 C 424.136719 8.21875 468.859375 7.414062 519.753906 7.003906 Z M 519.753906 7.023438 " fill-opacity="1" fill-rule="nonzero"/></svg>